<svg width="111" height="48" viewBox="0 0 111 48" fill="none" xmlns="http://www.w3.org/2000/svg">
<path d="M32.5117 5.4863C28.6346 1.82537 22.9508 0 15.4706 0H3.69711C2.7532 0 1.99199 0.33652 1.40331 0.999363C0.814637 1.65201 0.520299 2.55959 0.520299 3.70172V17.3053C1.12927 18.7533 2.78365 21.1498 6.99572 21.1498C6.99572 21.1498 7.38141 18.682 10.3045 17.55V12.1351C10.3045 11.4621 10.7815 10.8706 11.4615 10.7686C15.6229 10.1058 15.1255 16.0408 15.1661 18.4066C15.1661 18.4066 25.7724 16.2651 24.9097 23.0363C24.0571 29.7565 22.7682 33.4583 20.2308 34.2129C17.6934 34.9675 9.90865 34.2129 8.34562 31.7451L0.5 31.9286V44.849C0.5 46.9497 1.69765 48 4.09295 48H16.1608C30.9284 48 38.3071 39.587 38.3071 22.7508C38.3274 14.9089 36.3889 9.14723 32.5117 5.4863Z" fill="#89D0C5"/>
<path d="M51.3087 10.0343C52.1004 10.0343 52.8007 10.1771 53.4199 10.4728C54.039 10.7686 54.5465 11.1765 54.9727 11.7067C55.399 12.237 55.7137 12.8489 55.9268 13.5321C56.1399 14.2256 56.2516 14.9598 56.2516 15.745C56.2516 16.8055 56.0587 17.7641 55.6731 18.6309C55.2874 19.4977 54.7292 20.1809 53.9984 20.701C53.2676 21.2109 52.3745 21.4658 51.3087 21.4658H47.3707C47.0865 21.4658 46.8429 21.3741 46.6501 21.1803C46.4573 20.9865 46.3659 20.752 46.3659 20.4665V11.0235C46.3659 10.738 46.4573 10.5034 46.6501 10.3097C46.8429 10.1159 47.0764 10.0241 47.3707 10.0241H51.3087V10.0343ZM51.1464 19.5895C51.8365 19.5895 52.4049 19.4161 52.8413 19.0592C53.2778 18.7023 53.6025 18.2332 53.8055 17.6519C54.0085 17.0707 54.11 16.4384 54.11 15.745C54.11 15.2351 54.0491 14.7456 53.9375 14.2867C53.8258 13.8278 53.6431 13.4199 53.3996 13.063C53.156 12.7061 52.8515 12.4308 52.4759 12.2268C52.1004 12.0229 51.6538 11.9209 51.1464 11.9209H48.4263V19.5997H51.1464V19.5895Z" fill="#89D0C5"/>
<path d="M67.6496 10.014C67.9337 10.014 68.1672 10.1057 68.3397 10.2995C68.5123 10.4933 68.6036 10.7278 68.6036 11.0133V16.9279C68.6036 17.8355 68.4108 18.6309 68.0149 19.3346C67.6292 20.028 67.0913 20.5787 66.4113 20.9662C65.7313 21.3537 64.9396 21.5576 64.0363 21.5576C63.133 21.5576 62.3413 21.3639 61.6613 20.9662C60.9711 20.5787 60.4332 20.028 60.0475 19.3346C59.6618 18.6411 59.4588 17.8355 59.4588 16.9279V11.0133C59.4588 10.7278 59.5603 10.4933 59.7532 10.2995C59.946 10.1057 60.1998 10.014 60.5144 10.014C60.7681 10.014 60.9914 10.1057 61.1944 10.2995C61.3974 10.4933 61.4989 10.7278 61.4989 11.0133V16.9279C61.4989 17.4684 61.6207 17.9477 61.8541 18.3454C62.0876 18.7431 62.4022 19.049 62.7879 19.2734C63.1736 19.4875 63.5897 19.5997 64.0262 19.5997C64.5032 19.5997 64.9396 19.4875 65.3456 19.2734C65.7516 19.0592 66.0764 18.7431 66.3301 18.3454C66.5838 17.9477 66.7056 17.4786 66.7056 16.9279V11.0133C66.7056 10.7278 66.7868 10.4933 66.9492 10.2995C67.1319 10.1159 67.3654 10.014 67.6496 10.014Z" fill="#89D0C5"/>
<path d="M77.3221 10.0344C78.1138 10.0344 78.8141 10.1771 79.4332 10.4729C80.0523 10.7686 80.57 11.1765 80.9861 11.7068C81.4124 12.2371 81.727 12.8489 81.9401 13.5321C82.1533 14.2256 82.2649 14.9598 82.2649 15.745C82.2649 16.8056 82.0721 17.7641 81.6864 18.6309C81.3007 19.4977 80.7425 20.181 80.0117 20.701C79.281 21.2109 78.3878 21.4659 77.3221 21.4659H73.3841C73.0999 21.4659 72.8563 21.3741 72.6634 21.1803C72.4706 20.9866 72.3792 20.752 72.3792 20.4665V11.0235C72.3792 10.738 72.4808 10.5035 72.6634 10.3097C72.8563 10.116 73.0897 10.0242 73.3841 10.0242H77.3221V10.0344ZM77.1597 19.5895C77.8499 19.5895 78.4183 19.4161 78.8547 19.0592C79.2911 18.7023 79.6159 18.2332 79.8189 17.652C80.0219 17.0707 80.1234 16.4385 80.1234 15.745C80.1234 15.2351 80.0625 14.7457 79.9508 14.2868C79.8392 13.8279 79.6565 13.42 79.4129 13.0631C79.1693 12.7061 78.8648 12.4308 78.4893 12.2269C78.1138 12.0229 77.6672 11.9209 77.1597 11.9209H74.4396V19.5997H77.1597V19.5895Z" fill="#89D0C5"/>
<path d="M86.4872 10.0344H91.9984C92.2826 10.0344 92.5261 10.1262 92.719 10.2995C92.9118 10.4831 93.0032 10.7074 93.0032 10.993C93.0032 11.2683 92.9017 11.4824 92.719 11.6558C92.5261 11.8292 92.2927 11.9107 91.9984 11.9107H87.5326V14.6845H91.2575C91.5416 14.6845 91.7852 14.7763 91.9781 14.9496C92.1709 15.1332 92.2623 15.3575 92.2623 15.6431C92.2623 15.9184 92.1709 16.1325 91.9781 16.3059C91.7852 16.4793 91.5518 16.5608 91.2575 16.5608H87.5326V19.5895H91.9984C92.2826 19.5895 92.5261 19.6813 92.719 19.875C92.9118 20.0688 93.0032 20.2829 93.0032 20.5379C93.0032 20.8132 92.9017 21.0376 92.719 21.2109C92.5261 21.3843 92.2927 21.4761 91.9984 21.4761H86.4872C86.203 21.4761 85.9594 21.3843 85.7665 21.1905C85.5737 20.9968 85.4824 20.7622 85.4824 20.4767V11.0337C85.4824 10.7482 85.5839 10.5137 85.7665 10.3199C85.9594 10.1262 86.1928 10.0344 86.4872 10.0344Z" fill="#89D0C5"/>
<path d="M97.2153 10.0344H102.726C103.011 10.0344 103.254 10.1262 103.447 10.2995C103.64 10.4831 103.731 10.7074 103.731 10.993C103.731 11.2683 103.63 11.4824 103.447 11.6558C103.254 11.8292 103.021 11.9107 102.726 11.9107H98.2607V14.6845H101.986C102.27 14.6845 102.513 14.7763 102.706 14.9496C102.899 15.1332 102.99 15.3575 102.99 15.6431C102.99 15.9184 102.899 16.1325 102.706 16.3059C102.513 16.4793 102.28 16.5608 101.986 16.5608H98.2607V19.5895H102.726C103.011 19.5895 103.254 19.6813 103.447 19.875C103.64 20.0688 103.731 20.2829 103.731 20.5379C103.731 20.8132 103.63 21.0376 103.447 21.2109C103.254 21.3843 103.021 21.4761 102.726 21.4761H97.2153C96.9311 21.4761 96.6875 21.3843 96.4946 21.1905C96.3018 20.9968 96.2105 20.7622 96.2105 20.4767V11.0337C96.2105 10.7482 96.312 10.5137 96.4946 10.3199C96.6875 10.1262 96.9311 10.0344 97.2153 10.0344Z" fill="#89D0C5"/>
<path d="M48.4263 40.0867C48.4263 40.3722 48.3248 40.6068 48.1116 40.8005C47.8985 40.9943 47.665 41.0861 47.391 41.0861C47.0865 41.0861 46.8328 40.9943 46.6501 40.8005C46.4573 40.6068 46.3659 40.3722 46.3659 40.0867V30.6438C46.3659 30.3582 46.4674 30.1237 46.6602 29.9299C46.8632 29.7362 47.1068 29.6444 47.4215 29.6444C47.6853 29.6444 47.9188 29.7362 48.1218 29.9299C48.3248 30.1237 48.4263 30.3582 48.4263 30.6438V40.0867Z" fill="#89D0C5"/>
<path d="M60.961 29.6444C61.2249 29.6444 61.438 29.7362 61.6004 29.9096C61.7628 30.0829 61.844 30.2971 61.844 30.5622V40.0867C61.844 40.3723 61.7425 40.6068 61.5598 40.8006C61.3771 40.9943 61.1335 41.0861 60.8392 41.0861C60.6971 41.0861 60.555 41.0657 60.4028 41.0147C60.2505 40.9637 60.1389 40.9025 60.0678 40.8108L54.0187 33.1898V40.1683C54.0187 40.4335 53.9375 40.6476 53.765 40.821C53.5924 40.9943 53.3691 41.0861 53.0951 41.0861C52.8312 41.0861 52.6181 40.9943 52.4557 40.821C52.2933 40.6476 52.2121 40.4335 52.2121 40.1683V30.6438C52.2121 30.3583 52.3034 30.1237 52.4963 29.93C52.6891 29.7362 52.9225 29.6444 53.2169 29.6444C53.3691 29.6444 53.5315 29.675 53.6939 29.7362C53.8563 29.7974 53.9781 29.8892 54.0593 30.0013L60.0475 37.5853V30.5622C60.0475 30.2971 60.1287 30.0829 60.3013 29.9096C60.4637 29.7362 60.687 29.6444 60.961 29.6444Z" fill="#89D0C5"/>
<path d="M70.5726 29.6444C71.3643 29.6444 72.0646 29.7872 72.6837 30.0829C73.3029 30.3786 73.8205 30.7865 74.2366 31.3168C74.6629 31.8471 74.9776 32.4589 75.1907 33.1422C75.4038 33.8356 75.5155 34.5698 75.5155 35.3551C75.5155 36.4156 75.3226 37.3742 74.937 38.241C74.5513 39.1078 73.993 39.791 73.2623 40.3111C72.5315 40.821 71.6383 41.0759 70.5726 41.0759H66.6346C66.3504 41.0759 66.1068 40.9841 65.914 40.7904C65.7211 40.5966 65.6298 40.3621 65.6298 40.0765V30.6336C65.6298 30.348 65.7313 30.1135 65.914 29.9197C66.1068 29.726 66.3403 29.6342 66.6346 29.6342H70.5726V29.6444ZM70.4103 39.1995C71.1004 39.1995 71.6688 39.0262 72.1052 38.6693C72.5417 38.3124 72.8664 37.8433 73.0694 37.262C73.2724 36.6807 73.3739 36.0485 73.3739 35.3551C73.3739 34.8452 73.313 34.3557 73.2014 33.8968C73.0897 33.4379 72.907 33.03 72.6634 32.6731C72.4199 32.3162 72.1154 32.0408 71.7398 31.8369C71.3643 31.6329 70.9177 31.531 70.4103 31.531H67.6902V39.2097H70.4103V39.1995Z" fill="#89D0C5"/>
<path d="M79.7275 29.6444H85.2388C85.5229 29.6444 85.7665 29.7362 85.9594 29.9096C86.1522 30.0931 86.2436 30.3175 86.2436 30.603C86.2436 30.8783 86.1421 31.0925 85.9594 31.2658C85.7665 31.4392 85.5331 31.5208 85.2388 31.5208H80.7721H80.7729V34.2945H84.4978C84.782 34.2945 85.0256 34.3863 85.2185 34.5597C85.4113 34.7432 85.5027 34.9676 85.5027 35.2531C85.5027 35.5284 85.4113 35.7426 85.2185 35.9159C85.0256 36.0893 84.7922 36.1709 84.4978 36.1709H80.7729V39.1996H80.7721H85.2388C85.5229 39.1996 85.7665 39.2913 85.9594 39.4851C86.1522 39.6788 86.2436 39.893 86.2436 40.1479C86.2436 40.4233 86.1421 40.6476 85.9594 40.821C85.7665 40.9943 85.5331 41.0861 85.2388 41.0861H79.7275C79.4434 41.0861 79.1998 40.9943 79.0069 40.8006C78.8141 40.6068 78.7227 40.3723 78.7227 40.0867V30.6438C78.7227 30.3583 78.8242 30.1237 79.0069 29.93C79.2099 29.7362 79.4434 29.6444 79.7275 29.6444Z" fill="#89D0C5"/>
<path d="M90.4658 29.6444H95.977C96.2612 29.6444 96.5048 29.7362 96.6976 29.9096C96.8905 30.0931 96.9818 30.3175 96.9818 30.603C96.9818 30.8783 96.8803 31.0925 96.6976 31.2658C96.5048 31.4392 96.2713 31.5208 95.977 31.5208H91.5112V34.2945H95.2361C95.5203 34.2945 95.7639 34.3863 95.9567 34.5597C96.1495 34.733 96.2409 34.9676 96.2409 35.2531C96.2409 35.5284 96.1495 35.7426 95.9567 35.9159C95.7639 36.0893 95.5304 36.1709 95.2361 36.1709H91.5213V39.1996H95.9871C96.2713 39.1996 96.5149 39.2913 96.7078 39.4851C96.9006 39.6788 96.992 39.893 96.992 40.1479C96.992 40.4233 96.8905 40.6476 96.7078 40.821C96.5149 40.9943 96.2815 41.0861 95.9871 41.0861H90.4759C90.1917 41.0861 89.9482 40.9943 89.7553 40.8006C89.5625 40.6068 89.4711 40.3723 89.4711 40.0867V30.6438C89.4711 30.3583 89.5726 30.1237 89.7553 29.93C89.938 29.7362 90.1816 29.6444 90.4658 29.6444Z" fill="#89D0C5"/>
<path d="M105.142 29.6444C105.934 29.6444 106.634 29.7872 107.253 30.0829C107.872 30.3786 108.39 30.7865 108.806 31.3168C109.232 31.8471 109.547 32.4589 109.76 33.1422C109.973 33.8356 110.085 34.5698 110.085 35.3551C110.085 36.4156 109.892 37.3742 109.506 38.241C109.121 39.1078 108.562 39.791 107.832 40.3111C107.101 40.821 106.208 41.0759 105.142 41.0759H101.204C100.92 41.0759 100.676 40.9841 100.483 40.7904C100.291 40.5966 100.199 40.3621 100.199 40.0765V30.6336C100.199 30.348 100.301 30.1135 100.483 29.9197C100.676 29.726 100.91 29.6342 101.204 29.6342H105.142V29.6444ZM104.97 39.1995C105.66 39.1995 106.228 39.0262 106.665 38.6693C107.101 38.3124 107.426 37.8433 107.629 37.262C107.832 36.6807 107.933 36.0485 107.933 35.3551C107.933 34.8452 107.872 34.3557 107.761 33.8968C107.649 33.4379 107.466 33.03 107.223 32.6731C106.979 32.3162 106.675 32.0408 106.299 31.8369C105.924 31.6329 105.477 31.531 104.97 31.531H102.249V39.2097H104.97V39.1995Z" fill="#89D0C5"/>
</svg>
